<svg width="170" height="170" viewBox="0 0 170 170" fill="none" xmlns="http://www.w3.org/2000/svg">
<rect width="170" height="170" rx="20" fill="#282828"/>
<path d="M51.88 115.6C46.8453 115.6 42.536 114.448 38.44 112.144C34.344 109.755 31.0587 106.597 28.584 102.672C26.1947 98.6613 25 94.1387 25 89.104C25 85.3493 25.8107 81.8507 27.432 78.608C29.1387 75.28 31.4 72.4213 34.216 70.032C31.4853 67.728 29.3093 64.9973 27.688 61.84C26.152 58.6827 25.384 55.3547 25.384 51.856C25.384 46.9067 26.5787 42.512 28.968 38.672C31.3573 34.7467 34.5573 31.6747 38.568 29.456C42.5787 27.152 47.016 26 51.88 26H101.38L89.64 44.048L55.208 43.92C53.5867 43.92 52.0933 44.304 50.728 45.072C49.3627 45.84 48.2533 46.864 47.4 48.144C46.632 49.424 46.248 50.9173 46.248 52.624C46.248 54.2453 46.632 55.7387 47.4 57.104C48.2533 58.384 49.3627 59.408 50.728 60.176C52.0933 60.8587 53.5867 61.2 55.208 61.2H85.288L102.532 79.376L55.848 79.12C54.056 79.12 52.4347 79.5467 50.984 80.4C49.5333 81.2533 48.3813 82.3627 47.528 83.728C46.6747 85.0933 46.248 86.672 46.248 88.464C46.248 90.1707 46.6747 91.7493 47.528 93.2C48.3813 94.5653 49.5333 95.632 50.984 96.4C52.4347 97.168 54.056 97.552 55.848 97.552L89.72 97.68L88.452 115.6H51.88Z" fill="url(#paint0_linear_14_2)"/>
<path d="M76.9319 115.6V97.68H115.204C116.911 97.68 118.447 97.2533 119.812 96.4C121.177 95.5467 122.244 94.4373 123.012 93.072C123.865 91.7067 124.292 90.2133 124.292 88.592C124.292 86.8853 123.865 85.3493 123.012 83.984C122.244 82.6187 121.177 81.5093 119.812 80.656C118.447 79.8027 116.911 79.376 115.204 79.376H101.38C96.1746 79.376 91.4386 78.352 87.1719 76.304C82.9053 74.256 79.4919 71.2693 76.9319 67.344C74.4573 63.3333 72.2199 58.8107 72.2199 53.264C72.2199 47.8027 74.4146 42.8107 76.8039 38.8C79.1933 34.7893 82.4359 31.6747 86.5319 29.456C90.6279 27.152 96.4306 26 101.38 26H139.652V43.92H102.532C100.996 43.92 99.5879 44.304 98.3079 45.072C97.0279 45.84 96.0466 46.864 95.3639 48.144C94.6813 49.424 94.3399 50.832 94.3399 52.368C94.3399 53.904 94.6813 55.312 95.3639 56.592C96.0466 57.7867 97.0279 58.768 98.3079 59.536C99.5879 60.304 100.996 60.688 102.532 60.688H116.996C122.713 60.688 127.663 61.7973 131.844 64.016C136.111 66.1493 139.396 69.1787 141.7 73.104C144.089 76.944 145.284 81.4667 145.284 86.672C145.284 92.816 144.047 98.064 141.572 102.416C139.183 106.683 135.94 109.968 131.844 112.272C127.748 114.491 123.225 115.6 118.276 115.6H76.9319Z" fill="#73F7A3"/>
<path d="M43.6263 148.312C42.5223 148.312 41.5143 148.028 40.6023 147.46C39.6983 146.892 38.9743 146.128 38.4303 145.168C37.8943 144.208 37.6263 143.148 37.6263 141.988C37.6263 141.116 37.7823 140.3 38.0943 139.54C38.4063 138.772 38.8343 138.1 39.3783 137.524C39.9303 136.94 40.5703 136.484 41.2983 136.156C42.0263 135.828 42.8023 135.664 43.6263 135.664C44.5623 135.664 45.4183 135.864 46.1943 136.264C46.9783 136.656 47.6423 137.196 48.1863 137.884C48.7303 138.572 49.1263 139.356 49.3743 140.236C49.6223 141.116 49.6783 142.036 49.5423 142.996H40.7703C40.8823 143.444 41.0663 143.848 41.3223 144.208C41.5783 144.56 41.9023 144.844 42.2943 145.06C42.6863 145.268 43.1303 145.376 43.6263 145.384C44.1383 145.392 44.6023 145.272 45.0183 145.024C45.4423 144.768 45.7943 144.424 46.0743 143.992L49.0623 144.688C48.5743 145.752 47.8463 146.624 46.8783 147.304C45.9103 147.976 44.8263 148.312 43.6263 148.312ZM40.6743 140.8H46.5783C46.4903 140.32 46.3023 139.888 46.0143 139.504C45.7343 139.112 45.3863 138.8 44.9703 138.568C44.5543 138.336 44.1063 138.22 43.6263 138.22C43.1463 138.22 42.7023 138.336 42.2943 138.568C41.8863 138.792 41.5383 139.1 41.2503 139.492C40.9703 139.876 40.7783 140.312 40.6743 140.8ZM51.5067 148L51.4947 136H54.4227L54.4347 137.068C54.8427 136.636 55.3307 136.296 55.8987 136.048C56.4667 135.792 57.0787 135.664 57.7347 135.664C58.1747 135.664 58.6147 135.728 59.0547 135.856L57.9027 138.808C57.5987 138.688 57.2947 138.628 56.9907 138.628C56.5187 138.628 56.0867 138.744 55.6947 138.976C55.3107 139.2 55.0027 139.508 54.7707 139.9C54.5467 140.284 54.4347 140.712 54.4347 141.184V148H51.5067ZM60.4478 148V136H63.3758V137.068C63.7838 136.636 64.2718 136.296 64.8398 136.048C65.4078 135.792 66.0198 135.664 66.6758 135.664C67.5078 135.664 68.2718 135.86 68.9678 136.252C69.6718 136.644 70.2318 137.168 70.6478 137.824C71.0718 137.168 71.6318 136.644 72.3278 136.252C73.0238 135.86 73.7878 135.664 74.6198 135.664C75.4998 135.664 76.2958 135.88 77.0078 136.312C77.7278 136.736 78.2998 137.308 78.7238 138.028C79.1558 138.74 79.3718 139.536 79.3718 140.416V148H76.4438V141.196C76.4438 140.732 76.3278 140.308 76.0958 139.924C75.8718 139.532 75.5678 139.22 75.1838 138.988C74.8078 138.748 74.3838 138.628 73.9118 138.628C73.4398 138.628 73.0118 138.744 72.6278 138.976C72.2518 139.2 71.9478 139.504 71.7158 139.888C71.4838 140.272 71.3678 140.708 71.3678 141.196V148H68.4398V141.196C68.4398 140.708 68.3278 140.272 68.1038 139.888C67.8798 139.504 67.5758 139.2 67.1918 138.976C66.8078 138.744 66.3798 138.628 65.9078 138.628C65.4438 138.628 65.0198 138.748 64.6358 138.988C64.2518 139.22 63.9438 139.532 63.7118 139.924C63.4878 140.308 63.3758 140.732 63.3758 141.196V148H60.4478ZM81.7759 136H84.7039V148H81.7759V136ZM83.2639 134.452C82.8319 134.452 82.4679 134.312 82.1719 134.032C81.8759 133.744 81.7279 133.384 81.7279 132.952C81.7279 132.528 81.8759 132.172 82.1719 131.884C82.4679 131.596 82.8279 131.452 83.2519 131.452C83.6759 131.452 84.0319 131.596 84.3199 131.884C84.6159 132.172 84.7639 132.528 84.7639 132.952C84.7639 133.384 84.6199 133.744 84.3319 134.032C84.0439 134.312 83.6879 134.452 83.2639 134.452ZM87.5884 136H90.5164V148H87.5884V136ZM89.0764 134.452C88.6444 134.452 88.2804 134.312 87.9844 134.032C87.6884 133.744 87.5404 133.384 87.5404 132.952C87.5404 132.528 87.6884 132.172 87.9844 131.884C88.2804 131.596 88.6404 131.452 89.0644 131.452C89.4884 131.452 89.8444 131.596 90.1324 131.884C90.4284 132.172 90.5764 132.528 90.5764 132.952C90.5764 133.384 90.4324 133.744 90.1444 134.032C89.8564 134.312 89.5004 134.452 89.0764 134.452ZM96.7534 148.216C96.1294 148.176 95.5254 148.052 94.9414 147.844C94.3654 147.628 93.8534 147.336 93.4054 146.968C92.9574 146.6 92.6134 146.16 92.3734 145.648L94.8454 144.592C94.9414 144.752 95.0974 144.924 95.3134 145.108C95.5294 145.284 95.7854 145.432 96.0814 145.552C96.3854 145.672 96.7174 145.732 97.0774 145.732C97.3814 145.732 97.6694 145.692 97.9414 145.612C98.2214 145.524 98.4454 145.392 98.6134 145.216C98.7894 145.04 98.8774 144.812 98.8774 144.532C98.8774 144.236 98.7734 144.008 98.5654 143.848C98.3654 143.68 98.1094 143.556 97.7974 143.476C97.4934 143.388 97.1974 143.308 96.9094 143.236C96.1494 143.084 95.4414 142.848 94.7854 142.528C94.1374 142.208 93.6134 141.796 93.2134 141.292C92.8214 140.78 92.6254 140.164 92.6254 139.444C92.6254 138.652 92.8334 137.968 93.2494 137.392C93.6734 136.816 94.2214 136.372 94.8934 136.06C95.5734 135.748 96.3054 135.592 97.0894 135.592C98.0414 135.592 98.9134 135.792 99.7054 136.192C100.505 136.584 101.137 137.14 101.601 137.86L99.2854 139.228C99.1734 139.036 99.0174 138.86 98.8174 138.7C98.6174 138.532 98.3894 138.396 98.1334 138.292C97.8774 138.18 97.6094 138.116 97.3294 138.1C96.9694 138.084 96.6414 138.116 96.3454 138.196C96.0494 138.276 95.8094 138.412 95.6254 138.604C95.4494 138.796 95.3614 139.052 95.3614 139.372C95.3614 139.676 95.4814 139.904 95.7214 140.056C95.9614 140.2 96.2494 140.312 96.5854 140.392C96.9294 140.472 97.2574 140.56 97.5694 140.656C98.2734 140.888 98.9334 141.172 99.5494 141.508C100.173 141.844 100.673 142.256 101.049 142.744C101.425 143.232 101.605 143.816 101.589 144.496C101.589 145.272 101.357 145.952 100.893 146.536C100.429 147.112 99.8294 147.552 99.0934 147.856C98.3654 148.16 97.5854 148.28 96.7534 148.216ZM108.736 148.312C107.632 148.312 106.624 148.028 105.712 147.46C104.808 146.892 104.084 146.132 103.54 145.18C103.004 144.22 102.736 143.16 102.736 142C102.736 141.12 102.892 140.3 103.204 139.54C103.516 138.772 103.944 138.1 104.488 137.524C105.04 136.94 105.68 136.484 106.408 136.156C107.136 135.828 107.912 135.664 108.736 135.664C109.84 135.664 110.844 135.948 111.748 136.516C112.66 137.084 113.384 137.848 113.92 138.808C114.464 139.768 114.736 140.832 114.736 142C114.736 142.872 114.58 143.688 114.268 144.448C113.956 145.208 113.524 145.88 112.972 146.464C112.428 147.04 111.792 147.492 111.064 147.82C110.344 148.148 109.568 148.312 108.736 148.312ZM108.736 145.384C109.32 145.384 109.844 145.228 110.308 144.916C110.772 144.604 111.136 144.192 111.4 143.68C111.672 143.168 111.808 142.608 111.808 142C111.808 141.376 111.668 140.808 111.388 140.296C111.116 139.776 110.744 139.364 110.272 139.06C109.808 138.748 109.296 138.592 108.736 138.592C108.16 138.592 107.64 138.748 107.176 139.06C106.712 139.372 106.344 139.788 106.072 140.308C105.8 140.828 105.664 141.392 105.664 142C105.664 142.632 105.804 143.204 106.084 143.716C106.364 144.228 106.736 144.636 107.2 144.94C107.672 145.236 108.184 145.384 108.736 145.384ZM120.281 133.48V136H123.557V138.928H120.281V148H117.353V138.928H116.045V136H117.353V133.48C117.353 132.792 117.521 132.164 117.857 131.596C118.201 131.02 118.661 130.564 119.237 130.228C119.813 129.884 120.449 129.712 121.145 129.712C121.649 129.712 122.149 129.816 122.645 130.024C123.141 130.232 123.581 130.552 123.965 130.984L121.853 133.048C121.781 132.912 121.677 132.812 121.541 132.748C121.413 132.676 121.281 132.64 121.145 132.64C120.913 132.64 120.709 132.724 120.533 132.892C120.365 133.052 120.281 133.248 120.281 133.48ZM132.364 138.928H130.036V148H127.108V138.928H125.332V136H127.108V132.232H130.036V136H132.364V138.928Z" fill="#73F7A3"/>
<defs>
<linearGradient id="paint0_linear_14_2" x1="17" y1="71" x2="109.5" y2="71" gradientUnits="userSpaceOnUse">
<stop stop-color="#73F7A3"/>
<stop offset="0.9999" stop-color="#73F7A3" stop-opacity="0.37"/>
<stop offset="1" stop-color="#73F7A3"/>
</linearGradient>
</defs>
</svg>
