<svg width="176" height="170" viewBox="0 0 176 170" fill="none" xmlns="http://www.w3.org/2000/svg">
<rect width="170" height="170" rx="20" fill="#282828"/>
<path d="M51.88 129.6C46.8453 129.6 42.536 128.448 38.44 126.144C34.344 123.755 31.0587 120.597 28.584 116.672C26.1947 112.661 25 108.139 25 103.104C25 99.3493 25.8107 95.8507 27.432 92.608C29.1387 89.28 31.4 86.4213 34.216 84.032C31.4853 81.728 29.3093 78.9973 27.688 75.84C26.152 72.6827 25.384 69.3547 25.384 65.856C25.384 60.9067 26.5787 56.512 28.968 52.672C31.3573 48.7467 34.5573 45.6747 38.568 43.456C42.5787 41.152 47.016 40 51.88 40H101.38L89.64 58.048L55.208 57.92C53.5867 57.92 52.0933 58.304 50.728 59.072C49.3627 59.84 48.2533 60.864 47.4 62.144C46.632 63.424 46.248 64.9173 46.248 66.624C46.248 68.2453 46.632 69.7387 47.4 71.104C48.2533 72.384 49.3627 73.408 50.728 74.176C52.0933 74.8587 53.5867 75.2 55.208 75.2H85.288L102.532 93.376L55.848 93.12C54.056 93.12 52.4347 93.5467 50.984 94.4C49.5333 95.2533 48.3813 96.3627 47.528 97.728C46.6747 99.0933 46.248 100.672 46.248 102.464C46.248 104.171 46.6747 105.749 47.528 107.2C48.3813 108.565 49.5333 109.632 50.984 110.4C52.4347 111.168 54.056 111.552 55.848 111.552L89.72 111.68L88.452 129.6H51.88Z" fill="url(#paint0_linear_11_3)"/>
<path d="M76.9319 129.6V111.68H115.204C116.911 111.68 118.447 111.253 119.812 110.4C121.177 109.547 122.244 108.437 123.012 107.072C123.865 105.707 124.292 104.213 124.292 102.592C124.292 100.885 123.865 99.3493 123.012 97.984C122.244 96.6187 121.177 95.5093 119.812 94.656C118.447 93.8027 116.911 93.376 115.204 93.376H101.38C96.1746 93.376 91.4386 92.352 87.1719 90.304C82.9053 88.256 79.4919 85.2693 76.9319 81.344C74.4573 77.3333 72.2199 72.8107 72.2199 67.264C72.2199 61.8027 74.4146 56.8107 76.8039 52.8C79.1933 48.7893 82.4359 45.6747 86.5319 43.456C90.6279 41.152 96.4306 40 101.38 40H139.652V57.92H102.532C100.996 57.92 99.5879 58.304 98.3079 59.072C97.0279 59.84 96.0466 60.864 95.3639 62.144C94.6813 63.424 94.3399 64.832 94.3399 66.368C94.3399 67.904 94.6813 69.312 95.3639 70.592C96.0466 71.7867 97.0279 72.768 98.3079 73.536C99.5879 74.304 100.996 74.688 102.532 74.688H116.996C122.713 74.688 127.663 75.7973 131.844 78.016C136.111 80.1493 139.396 83.1787 141.7 87.104C144.089 90.944 145.284 95.4667 145.284 100.672C145.284 106.816 144.047 112.064 141.572 116.416C139.183 120.683 135.94 123.968 131.844 126.272C127.748 128.491 123.225 129.6 118.276 129.6H76.9319Z" fill="#73F7A3"/>
<defs>
<linearGradient id="paint0_linear_11_3" x1="17" y1="85" x2="109.5" y2="85" gradientUnits="userSpaceOnUse">
<stop stop-color="#73F7A3"/>
<stop offset="0.9999" stop-color="#73F7A3" stop-opacity="0.37"/>
<stop offset="1" stop-color="#73F7A3"/>
</linearGradient>
</defs>
</svg>
