<svg width="176" height="165" viewBox="0 0 176 165" fill="none" xmlns="http://www.w3.org/2000/svg">
<rect width="176" height="165" rx="20" fill="white"/>
<path d="M54.66 116.6C49.6253 116.6 45.316 115.448 41.22 113.144C37.124 110.755 33.8387 107.597 31.364 103.672C28.9747 99.6613 27.78 95.1387 27.78 90.104C27.78 86.3493 28.5907 82.8507 30.212 79.608C31.9187 76.28 34.18 73.4213 36.996 71.032C34.2653 68.728 32.0893 65.9973 30.468 62.84C28.932 59.6827 28.164 56.3547 28.164 52.856C28.164 47.9067 29.3587 43.512 31.748 39.672C34.1373 35.7467 37.3373 32.6747 41.348 30.456C45.3587 28.152 49.796 27 54.66 27H104.16L92.42 45.048L57.988 44.92C56.3667 44.92 54.8733 45.304 53.508 46.072C52.1427 46.84 51.0333 47.864 50.18 49.144C49.412 50.424 49.028 51.9173 49.028 53.624C49.028 55.2453 49.412 56.7387 50.18 58.104C51.0333 59.384 52.1427 60.408 53.508 61.176C54.8733 61.8587 56.3667 62.2 57.988 62.2H88.068L105.312 80.376L58.628 80.12C56.836 80.12 55.2147 80.5467 53.764 81.4C52.3133 82.2533 51.1613 83.3627 50.308 84.728C49.4547 86.0933 49.028 87.672 49.028 89.464C49.028 91.1707 49.4547 92.7493 50.308 94.2C51.1613 95.5653 52.3133 96.632 53.764 97.4C55.2147 98.168 56.836 98.552 58.628 98.552H92.42L91.232 116.6H54.66Z" fill="black"/>
<path d="M79.7119 116.6V98.68H117.984C119.691 98.68 121.227 98.2533 122.592 97.4C123.957 96.5467 125.024 95.4373 125.792 94.072C126.645 92.7067 127.072 91.2133 127.072 89.592C127.072 87.8853 126.645 86.3493 125.792 84.984C125.024 83.6187 123.957 82.5093 122.592 81.656C121.227 80.8027 119.691 80.376 117.984 80.376H104.16C98.9546 80.376 94.2186 79.352 89.9519 77.304C85.6853 75.256 82.2719 72.2693 79.7119 68.344C77.2373 64.3333 74.9999 59.8107 74.9999 54.264C74.9999 48.8027 77.1946 43.8107 79.5839 39.8C81.9733 35.7893 85.2159 32.6747 89.3119 30.456C93.4079 28.152 99.2106 27 104.16 27H142.432V44.92H105.312C103.776 44.92 102.368 45.304 101.088 46.072C99.8079 46.84 98.8266 47.864 98.1439 49.144C97.4613 50.424 97.1199 51.832 97.1199 53.368C97.1199 54.904 97.4613 56.312 98.1439 57.592C98.8266 58.7867 99.8079 59.768 101.088 60.536C102.368 61.304 103.776 61.688 105.312 61.688H119.776C125.493 61.688 130.443 62.7973 134.624 65.016C138.891 67.1493 142.176 70.1787 144.48 74.104C146.869 77.944 148.064 82.4667 148.064 87.672C148.064 93.816 146.827 99.064 144.352 103.416C141.963 107.683 138.72 110.968 134.624 113.272C130.528 115.491 126.005 116.6 121.056 116.6H79.7119Z" fill="black"/>
<path d="M39.824 139C38.432 139 37.208 138.744 36.152 138.232C35.096 137.704 34.272 136.984 33.68 136.072C33.104 135.144 32.816 134.072 32.816 132.856C32.816 131.512 33.096 130.36 33.656 129.4C34.216 128.44 34.96 127.704 35.888 127.192C36.832 126.664 37.872 126.4 39.008 126.4C40.304 126.4 41.384 126.672 42.248 127.216C43.128 127.76 43.792 128.504 44.24 129.448C44.688 130.376 44.912 131.44 44.912 132.64C44.912 132.848 44.896 133.096 44.864 133.384C44.848 133.656 44.824 133.872 44.792 134.032H36.728C36.824 134.448 37.008 134.8 37.28 135.088C37.552 135.376 37.896 135.592 38.312 135.736C38.728 135.864 39.192 135.928 39.704 135.928H43.472V139H39.824ZM36.632 131.704H41.312C41.28 131.448 41.232 131.2 41.168 130.96C41.104 130.72 41 130.512 40.856 130.336C40.728 130.144 40.576 129.984 40.4 129.856C40.224 129.712 40.016 129.6 39.776 129.52C39.552 129.44 39.296 129.4 39.008 129.4C38.64 129.4 38.312 129.464 38.024 129.592C37.736 129.72 37.496 129.896 37.304 130.12C37.112 130.328 36.96 130.576 36.848 130.864C36.752 131.136 36.68 131.416 36.632 131.704ZM46.9835 139V130.312C46.9835 129.192 47.3035 128.312 47.9435 127.672C48.5835 127.032 49.4715 126.712 50.6075 126.712H54.1835V129.736H51.5195C51.2955 129.736 51.1035 129.816 50.9435 129.976C50.7835 130.12 50.7035 130.312 50.7035 130.552V139H46.9835ZM55.8451 139V131.728C55.8451 130.72 56.0771 129.816 56.5411 129.016C57.0211 128.2 57.7011 127.56 58.5811 127.096C59.4611 126.632 60.5091 126.4 61.7251 126.4C62.3331 126.4 62.8931 126.472 63.4051 126.616C63.9171 126.744 64.3811 126.928 64.7971 127.168C65.2291 127.392 65.5971 127.664 65.9011 127.984H65.9491C66.2691 127.664 66.6371 127.392 67.0531 127.168C67.4851 126.928 67.9571 126.744 68.4691 126.616C68.9971 126.472 69.5651 126.4 70.1731 126.4C71.3891 126.4 72.4371 126.632 73.3171 127.096C74.1971 127.56 74.8771 128.2 75.3571 129.016C75.8371 129.816 76.0771 130.72 76.0771 131.728V139H72.3331V131.848C72.3331 131.448 72.2291 131.088 72.0211 130.768C71.8291 130.432 71.5651 130.16 71.2291 129.952C70.8931 129.744 70.5091 129.64 70.0771 129.64C69.6451 129.64 69.2531 129.744 68.9011 129.952C68.5651 130.16 68.3011 130.432 68.1091 130.768C67.9171 131.088 67.8211 131.448 67.8211 131.848V139H64.1011V131.848C64.1011 131.448 63.9971 131.088 63.7891 130.768C63.5971 130.432 63.3251 130.16 62.9731 129.952C62.6371 129.744 62.2531 129.64 61.8211 129.64C61.3891 129.64 60.9971 129.744 60.6451 129.952C60.3091 130.16 60.0451 130.432 59.8531 130.768C59.6611 131.088 59.5651 131.448 59.5651 131.848V139H55.8451ZM78.8373 139V126.688H82.5813V139H78.8373ZM80.7093 125.296C80.1173 125.296 79.6053 125.08 79.1733 124.648C78.7413 124.216 78.5253 123.704 78.5253 123.112C78.5253 122.52 78.7413 122.008 79.1733 121.576C79.6053 121.128 80.1173 120.904 80.7093 120.904C81.3013 120.904 81.8133 121.128 82.2453 121.576C82.6773 122.008 82.8933 122.52 82.8933 123.112C82.8933 123.704 82.6773 124.216 82.2453 124.648C81.8133 125.08 81.3013 125.296 80.7093 125.296ZM85.3061 139V126.688H89.0501V139H85.3061ZM87.1781 125.296C86.5861 125.296 86.0741 125.08 85.6421 124.648C85.2101 124.216 84.9941 123.704 84.9941 123.112C84.9941 122.52 85.2101 122.008 85.6421 121.576C86.0741 121.128 86.5861 120.904 87.1781 120.904C87.7701 120.904 88.2821 121.128 88.7141 121.576C89.1461 122.008 89.3621 122.52 89.3621 123.112C89.3621 123.704 89.1461 124.216 88.7141 124.648C88.2821 125.08 87.7701 125.296 87.1781 125.296ZM91.7988 139V136.048H97.7268C97.8868 136.048 98.0308 136.016 98.1588 135.952C98.2868 135.872 98.3908 135.768 98.4708 135.64C98.5508 135.512 98.5908 135.376 98.5908 135.232C98.5908 135.072 98.5508 134.928 98.4708 134.8C98.3908 134.672 98.2868 134.576 98.1588 134.512C98.0308 134.432 97.8868 134.392 97.7268 134.392H95.5668C94.7668 134.392 94.0388 134.264 93.3828 134.008C92.7428 133.736 92.2308 133.32 91.8468 132.76C91.4788 132.184 91.2948 131.44 91.2948 130.528C91.2948 129.824 91.4628 129.184 91.7988 128.608C92.1508 128.032 92.6228 127.568 93.2148 127.216C93.8228 126.864 94.4868 126.688 95.2068 126.688H101.135V129.664H95.7828C95.5588 129.664 95.3668 129.736 95.2068 129.88C95.0628 130.024 94.9908 130.2 94.9908 130.408C94.9908 130.632 95.0628 130.824 95.2068 130.984C95.3668 131.128 95.5588 131.2 95.7828 131.2H97.8948C98.7908 131.2 99.5588 131.336 100.199 131.608C100.855 131.864 101.359 132.28 101.711 132.856C102.079 133.432 102.263 134.176 102.263 135.088C102.263 135.808 102.079 136.464 101.711 137.056C101.359 137.648 100.879 138.12 100.271 138.472C99.6788 138.824 99.0068 139 98.2548 139H91.7988ZM110.597 139.288C109.333 139.288 108.197 139.008 107.189 138.448C106.181 137.888 105.381 137.12 104.789 136.144C104.213 135.168 103.925 134.072 103.925 132.856C103.925 131.624 104.213 130.528 104.789 129.568C105.381 128.592 106.181 127.824 107.189 127.264C108.197 126.688 109.333 126.4 110.597 126.4C111.861 126.4 112.989 126.688 113.981 127.264C114.989 127.824 115.781 128.592 116.357 129.568C116.949 130.528 117.245 131.624 117.245 132.856C117.245 134.072 116.949 135.168 116.357 136.144C115.781 137.12 114.989 137.888 113.981 138.448C112.973 139.008 111.845 139.288 110.597 139.288ZM110.597 136.048C111.189 136.048 111.701 135.904 112.133 135.616C112.565 135.328 112.901 134.944 113.141 134.464C113.381 133.984 113.501 133.44 113.501 132.832C113.501 132.24 113.381 131.704 113.141 131.224C112.901 130.744 112.565 130.36 112.133 130.072C111.701 129.784 111.189 129.64 110.597 129.64C110.005 129.64 109.485 129.784 109.037 130.072C108.605 130.36 108.269 130.744 108.029 131.224C107.789 131.704 107.669 132.24 107.669 132.832C107.669 133.44 107.789 133.984 108.029 134.464C108.269 134.944 108.605 135.328 109.037 135.616C109.485 135.904 110.005 136.048 110.597 136.048ZM120.391 139V129.736H118.327V126.688H120.391V125.08C120.391 123.96 120.711 123.08 121.351 122.44C121.991 121.8 122.871 121.48 123.991 121.48H127.735V124.528H124.807C124.615 124.528 124.447 124.6 124.303 124.744C124.175 124.872 124.111 125.032 124.111 125.224V126.688H127.207V129.736H124.111V139H120.391ZM133.342 139C132.206 139 131.318 138.68 130.678 138.04C130.038 137.384 129.718 136.504 129.718 135.4V123.688H133.462V135.184C133.462 135.376 133.526 135.544 133.654 135.688C133.798 135.816 133.966 135.88 134.158 135.88H136.846V139H133.342ZM127.702 129.736V126.688H136.846V129.736H127.702Z" fill="black"/>
</svg>
