<svg width="176" height="165" viewBox="0 0 176 165" fill="none" xmlns="http://www.w3.org/2000/svg">
<rect width="176" height="165" rx="20" fill="white"/>
<path d="M54.66 126.6C49.6253 126.6 45.316 125.448 41.22 123.144C37.124 120.755 33.8387 117.597 31.364 113.672C28.9747 109.661 27.78 105.139 27.78 100.104C27.78 96.3493 28.5907 92.8507 30.212 89.608C31.9187 86.28 34.18 83.4213 36.996 81.032C34.2653 78.728 32.0893 75.9973 30.468 72.84C28.932 69.6827 28.164 66.3547 28.164 62.856C28.164 57.9067 29.3587 53.512 31.748 49.672C34.1373 45.7467 37.3373 42.6747 41.348 40.456C45.3587 38.152 49.796 37 54.66 37H104.16L92.42 55.048L57.988 54.92C56.3667 54.92 54.8733 55.304 53.508 56.072C52.1427 56.84 51.0333 57.864 50.18 59.144C49.412 60.424 49.028 61.9173 49.028 63.624C49.028 65.2453 49.412 66.7387 50.18 68.104C51.0333 69.384 52.1427 70.408 53.508 71.176C54.8733 71.8587 56.3667 72.2 57.988 72.2H88.068L105.312 90.376L58.628 90.12C56.836 90.12 55.2147 90.5467 53.764 91.4C52.3133 92.2533 51.1613 93.3627 50.308 94.728C49.4547 96.0933 49.028 97.672 49.028 99.464C49.028 101.171 49.4547 102.749 50.308 104.2C51.1613 105.565 52.3133 106.632 53.764 107.4C55.2147 108.168 56.836 108.552 58.628 108.552H92.42L91.232 126.6H54.66Z" fill="black"/>
<path d="M79.7119 126.6V108.68H117.984C119.691 108.68 121.227 108.253 122.592 107.4C123.957 106.547 125.024 105.437 125.792 104.072C126.645 102.707 127.072 101.213 127.072 99.592C127.072 97.8853 126.645 96.3493 125.792 94.984C125.024 93.6187 123.957 92.5093 122.592 91.656C121.227 90.8027 119.691 90.376 117.984 90.376H104.16C98.9546 90.376 94.2186 89.352 89.9519 87.304C85.6853 85.256 82.2719 82.2693 79.7119 78.344C77.2373 74.3333 74.9999 69.8107 74.9999 64.264C74.9999 58.8027 77.1946 53.8107 79.5839 49.8C81.9733 45.7893 85.2159 42.6747 89.3119 40.456C93.4079 38.152 99.2106 37 104.16 37H142.432V54.92H105.312C103.776 54.92 102.368 55.304 101.088 56.072C99.8079 56.84 98.8266 57.864 98.1439 59.144C97.4613 60.424 97.1199 61.832 97.1199 63.368C97.1199 64.904 97.4613 66.312 98.1439 67.592C98.8266 68.7867 99.8079 69.768 101.088 70.536C102.368 71.304 103.776 71.688 105.312 71.688H119.776C125.493 71.688 130.443 72.7973 134.624 75.016C138.891 77.1493 142.176 80.1787 144.48 84.104C146.869 87.944 148.064 92.4667 148.064 97.672C148.064 103.816 146.827 109.064 144.352 113.416C141.963 117.683 138.72 120.968 134.624 123.272C130.528 125.491 126.005 126.6 121.056 126.6H79.7119Z" fill="black"/>
</svg>
